<svg height="100%" width="100%" id="bg-svg" viewBox="0 0 1440 400" xmlns="http://www.w3.org/2000/svg" class="transition duration-300 ease-in-out delay-150"><path d="M 0,400 C 0,400 0,80 0,80 C 60.22947342458997,82.3628067579233 120.45894684917994,84.72561351584659 169,88 C 217.54105315082006,91.27438648415341 254.39368602787022,95.46035269453694 297,89 C 339.6063139721298,82.53964730546306 387.9663090393391,65.43297570600566 454,68 C 520.0336909606609,70.56702429399434 603.7410778147737,92.80774448144038 661,100 C 718.2589221852263,107.19225551855962 749.0693797015662,99.33604636823281 795,93 C 840.9306202984338,86.66395363176719 901.9814033789617,81.84807004562832 953,81 C 1004.0185966210383,80.15192995437168 1045.0050067825873,83.27167344925392 1105,77 C 1164.9949932174127,70.72832655074608 1243.9985694906893,55.06523615735602 1303,54 C 1362.0014305093107,52.93476384264398 1401.0007152546555,66.46738192132199 1440,80 C 1440,80 1440,400 1440,400 Z" stroke="none" stroke-width="0" fill="#ff690044" class="transition-all duration-300 ease-in-out delay-150"></path><path d="M 0,400 C 0,400 0,160 0,160 C 58.99834751510669,147.27142680971758 117.99669503021337,134.5428536194352 173,138 C 228.00330496978663,141.4571463805648 279.0115673942533,161.1000123319768 336,168 C 392.9884326057467,174.8999876680232 455.9570353927735,169.05709705265755 497,163 C 538.0429646072265,156.94290294734245 557.1602910346529,150.671599457393 611,143 C 664.8397089653471,135.328400542607 753.4018004686152,126.25650511777039 809,132 C 864.5981995313848,137.7434948822296 887.2325070908867,158.30238007152545 937,168 C 986.7674929091133,177.69761992847455 1063.6681711678384,176.53397459612776 1120,175 C 1176.3318288321616,173.46602540387224 1212.0948082377604,171.56172154396347 1262,169 C 1311.9051917622396,166.43827845603653 1375.9525958811198,163.21913922801826 1440,160 C 1440,160 1440,400 1440,400 Z" stroke="none" stroke-width="0" fill="#ff690066" class="transition-all duration-300 ease-in-out delay-150"></path><path d="M 0,400 C 0,400 0,240 0,240 C 52.45781230731288,221.04663953631768 104.91562461462576,202.09327907263534 164,210 C 223.08437538537424,217.90672092736466 288.79531384880994,252.67352324577632 334,259 C 379.20468615119006,265.3264767542237 403.9031199901344,243.21262794425948 451,237 C 498.0968800098656,230.78737205574052 567.5922061906524,240.47596497718584 633,248 C 698.4077938093476,255.52403502281416 759.7280552472562,260.8835121469972 820,264 C 880.2719447527438,267.1164878530028 939.4955728203231,267.9899864348255 983,264 C 1026.504427179677,260.0100135651745 1054.2896534714516,251.15654211370082 1102,248 C 1149.7103465285484,244.84345788629918 1217.345813293871,247.38384511037117 1277,247 C 1336.654186706129,246.61615488962883 1388.3270933530644,243.30807744481442 1440,240 C 1440,240 1440,400 1440,400 Z" stroke="none" stroke-width="0" fill="#ff690088" class="transition-all duration-300 ease-in-out delay-150"></path><path d="M 0,400 C 0,400 0,320 0,320 C 48.105561721543964,328.4933284005426 96.21112344308793,336.9866568010852 150,336 C 203.78887655691207,335.0133431989148 263.26106794919224,324.54670119620175 319,326 C 374.73893205080776,327.45329880379825 426.74460476014303,340.8265384141078 477,332 C 527.255395239857,323.1734615858922 575.7605130102356,292.14714514736716 633,293 C 690.2394869897644,293.85285485263284 756.2133431989147,326.5848809964237 817,334 C 877.7866568010853,341.4151190035763 933.3861141941052,323.513330866938 988,318 C 1042.6138858058948,312.486669133062 1096.242200024664,319.36179553582434 1148,328 C 1199.757799975336,336.63820446417566 1249.6450857072386,347.03948698976444 1298,346 C 1346.3549142927614,344.96051301023556 1393.1774571463807,332.4802565051178 1440,320 C 1440,320 1440,400 1440,400 Z" stroke="none" stroke-width="0" fill="#ff6900ff" class="transition-all duration-300 ease-in-out delay-150"></path></svg>