<svg height="100%" width="100%" id="bg-svg" viewBox="0 0 1440 600" xmlns="http://www.w3.org/2000/svg" class="transition duration-300 ease-in-out delay-150" preserveAspectRatio="none"><path d="M 0,600 C 0,600 0,120 0,120 C 98.66666666666669,115.56410256410257 197.33333333333337,111.12820512820512 262,118 C 326.66666666666663,124.87179487179488 357.33333333333326,143.05128205128204 438,139 C 518.6666666666667,134.94871794871796 649.3333333333334,108.66666666666669 752,102 C 854.6666666666666,95.33333333333331 929.3333333333333,108.2820512820513 1004,125 C 1078.6666666666667,141.7179487179487 1153.3333333333335,162.2051282051282 1226,162 C 1298.6666666666665,161.7948717948718 1369.3333333333333,140.8974358974359 1440,120 C 1440,120 1440,600 1440,600 Z" stroke="none" stroke-width="0" fill="#3c6e7144" class="transition-all duration-300 ease-in-out delay-150"></path><path d="M 0,600 C 0,600 0,240 0,240 C 67.20256410256408,251.1974358974359 134.40512820512816,262.3948717948718 207,268 C 279.59487179487184,273.6051282051282 357.58205128205134,273.6179487179487 436,260 C 514.4179487179487,246.38205128205126 593.2666666666665,219.13333333333333 689,213 C 784.7333333333335,206.86666666666667 897.3512820512822,221.848717948718 981,234 C 1064.6487179487178,246.151282051282 1119.3282051282051,255.47179487179488 1191,256 C 1262.6717948717949,256.5282051282051 1351.3358974358976,248.26410256410256 1440,240 C 1440,240 1440,600 1440,600 Z" stroke="none" stroke-width="0" fill="#3c6e7166" class="transition-all duration-300 ease-in-out delay-150"></path><path d="M 0,600 C 0,600 0,360 0,360 C 62.617948717948735,350.6692307692308 125.23589743589747,341.33846153846156 209,335 C 292.76410256410253,328.66153846153844 397.67435897435894,325.31538461538463 475,335 C 552.3256410256411,344.68461538461537 602.0666666666667,367.3999999999999 683,367 C 763.9333333333333,366.6000000000001 876.0589743589742,343.0846153846154 958,329 C 1039.9410256410258,314.9153846153846 1091.697435897436,310.26153846153846 1167,317 C 1242.302564102564,323.73846153846154 1341.1512820512821,341.86923076923074 1440,360 C 1440,360 1440,600 1440,600 Z" stroke="none" stroke-width="0" fill="#3c6e7188" class="transition-all duration-300 ease-in-out delay-150"></path><path d="M 0,600 C 0,600 0,480 0,480 C 66.4769230769231,481.77435897435896 132.9538461538462,483.548717948718 217,485 C 301.0461538461538,486.451282051282 402.6615384615385,487.5794871794872 489,474 C 575.3384615384615,460.4205128205128 646.4,432.1333333333333 718,441 C 789.6,449.8666666666667 861.7384615384617,495.88717948717954 934,509 C 1006.2615384615383,522.1128205128205 1078.6461538461538,502.3179487179487 1163,492 C 1247.3538461538462,481.6820512820513 1343.6769230769232,480.8410256410257 1440,480 C 1440,480 1440,600 1440,600 Z" stroke="none" stroke-width="0" fill="#3c6e71ff" class="transition-all duration-300 ease-in-out delay-150"></path></svg>