<svg height="100%" width="100%" id="bg-svg" viewBox="0 0 1440 600" xmlns="http://www.w3.org/2000/svg" class="transition duration-300 ease-in-out delay-150" preserveAspectRatio="none"><path d="M 0,600 C 0,600 0,120 0,120 C 68.12564102564104,122.65128205128204 136.2512820512821,125.30256410256408 212,135 C 287.7487179487179,144.69743589743592 371.1205128205128,161.44102564102567 463,158 C 554.8794871794872,154.55897435897433 655.2666666666668,130.9333333333333 748,129 C 840.7333333333332,127.06666666666669 925.8128205128205,146.82564102564103 991,150 C 1056.1871794871795,153.17435897435897 1101.4820512820513,139.76410256410256 1173,132 C 1244.5179487179487,124.23589743589744 1342.2589743589742,122.11794871794872 1440,120 C 1440,120 1440,600 1440,600 Z" stroke="none" stroke-width="0" fill="#ffffff44" class="transition-all duration-300 ease-in-out delay-150"></path><path d="M 0,600 C 0,600 0,240 0,240 C 88.66923076923078,248.8820512820513 177.33846153846156,257.7641025641026 250,248 C 322.66153846153844,238.23589743589744 379.3153846153846,209.82564102564103 459,204 C 538.6846153846154,198.17435897435897 641.4,214.93333333333334 715,237 C 788.6,259.06666666666666 833.0846153846155,286.4410256410257 923,282 C 1012.9153846153845,277.5589743589743 1148.2615384615383,241.30256410256408 1242,229 C 1335.7384615384617,216.69743589743592 1387.8692307692309,228.34871794871796 1440,240 C 1440,240 1440,600 1440,600 Z" stroke="none" stroke-width="0" fill="#ffffff66" class="transition-all duration-300 ease-in-out delay-150"></path><path d="M 0,600 C 0,600 0,360 0,360 C 86.56923076923076,338.574358974359 173.1384615384615,317.14871794871794 263,329 C 352.8615384615385,340.85128205128206 446.0153846153846,385.9794871794872 508,389 C 569.9846153846154,392.0205128205128 600.8000000000001,352.93333333333334 687,345 C 773.1999999999999,337.06666666666666 914.7846153846153,360.28717948717946 997,371 C 1079.2153846153847,381.71282051282054 1102.0615384615385,379.91794871794866 1166,376 C 1229.9384615384615,372.08205128205134 1334.9692307692308,366.04102564102567 1440,360 C 1440,360 1440,600 1440,600 Z" stroke="none" stroke-width="0" fill="#ffffff88" class="transition-all duration-300 ease-in-out delay-150"></path><path d="M 0,600 C 0,600 0,480 0,480 C 89.36410256410255,492.925641025641 178.7282051282051,505.85128205128206 263,507 C 347.2717948717949,508.14871794871794 426.4512820512821,497.5205128205128 504,495 C 581.5487179487179,492.4794871794872 657.4666666666666,498.06666666666666 742,492 C 826.5333333333334,485.93333333333334 919.6820512820511,468.21282051282054 998,468 C 1076.3179487179489,467.78717948717946 1139.8051282051283,485.0820512820512 1211,490 C 1282.1948717948717,494.9179487179488 1361.0974358974358,487.4589743589744 1440,480 C 1440,480 1440,600 1440,600 Z" stroke="none" stroke-width="0" fill="#ffffffff" class="transition-all duration-300 ease-in-out delay-150"></path></svg>