<svg height="100%" width="100%" id="bg-svg" viewBox="0 0 1440 600" xmlns="http://www.w3.org/2000/svg" class="transition duration-300 ease-in-out delay-150" preserveAspectRatio="none"><path d="M 0,600 C 0,600 0,120 0,120 C 66.80769230769229,137.38717948717948 133.61538461538458,154.774358974359 208,156 C 282.3846153846154,157.225641025641 364.3461538461539,142.2897435897436 447,144 C 529.6538461538461,145.7102564102564 613,164.06666666666666 699,161 C 785,157.93333333333334 873.6538461538462,133.4435897435897 960,122 C 1046.3461538461538,110.55641025641027 1130.3846153846152,112.15897435897436 1210,114 C 1289.6153846153848,115.84102564102564 1364.8076923076924,117.92051282051281 1440,120 C 1440,120 1440,600 1440,600 Z" stroke="none" stroke-width="0" fill="#ff690044" class="transition-all duration-300 ease-in-out delay-150"></path><path d="M 0,600 C 0,600 0,240 0,240 C 100.91025641025641,223.15128205128207 201.82051282051282,206.3025641025641 283,205 C 364.1794871794872,203.6974358974359 425.6282051282052,217.94102564102565 493,223 C 560.3717948717948,228.05897435897435 633.6666666666666,223.93333333333334 705,233 C 776.3333333333334,242.06666666666666 845.7051282051283,264.325641025641 929,276 C 1012.2948717948717,287.674358974359 1109.5128205128206,288.7641025641026 1197,281 C 1284.4871794871794,273.2358974358974 1362.2435897435898,256.6179487179487 1440,240 C 1440,240 1440,600 1440,600 Z" stroke="none" stroke-width="0" fill="#ff690066" class="transition-all duration-300 ease-in-out delay-150"></path><path d="M 0,600 C 0,600 0,360 0,360 C 78.36153846153846,372.81025641025644 156.72307692307692,385.62051282051283 235,374 C 313.2769230769231,362.37948717948717 391.46923076923076,326.3282051282051 475,336 C 558.5307692307692,345.6717948717949 647.4,401.06666666666666 737,400 C 826.6,398.93333333333334 916.9307692307693,341.4051282051282 996,335 C 1075.0692307692307,328.5948717948718 1142.876923076923,373.3128205128205 1215,386 C 1287.123076923077,398.6871794871795 1363.5615384615385,379.34358974358975 1440,360 C 1440,360 1440,600 1440,600 Z" stroke="none" stroke-width="0" fill="#ff690088" class="transition-all duration-300 ease-in-out delay-150"></path><path d="M 0,600 C 0,600 0,480 0,480 C 97.76153846153849,501.19743589743587 195.52307692307699,522.3948717948717 266,510 C 336.476923076923,497.6051282051282 379.6692307692307,451.6179487179488 452,439 C 524.3307692307693,426.3820512820512 625.8000000000001,447.1333333333333 705,465 C 784.1999999999999,482.8666666666667 841.1307692307691,497.848717948718 919,508 C 996.8692307692309,518.151282051282 1095.6769230769232,523.4717948717949 1186,518 C 1276.3230769230768,512.5282051282051 1358.1615384615384,496.26410256410253 1440,480 C 1440,480 1440,600 1440,600 Z" stroke="none" stroke-width="0" fill="#ff6900ff" class="transition-all duration-300 ease-in-out delay-150"></path></svg>